<?xml version="1.0" encoding="UTF-8" standalone="no"?>
<!DOCTYPE svg PUBLIC "-//W3C//DTD SVG 1.1//EN"
 "http://www.w3.org/Graphics/SVG/1.1/DTD/svg11.dtd">
<!-- Generated by graphviz version 2.26.3 (20100126.1600)
 -->
<!-- Title: mygraph Pages: 1 -->
<svg width="392pt" height="290pt"
 viewBox="0.00 0.00 392.00 290.00" xmlns="http://www.w3.org/2000/svg" xmlns:xlink="http://www.w3.org/1999/xlink">
<g id="graph1" class="graph" transform="scale(1 1) rotate(0) translate(4 286)">
<title>mygraph</title>
<polygon fill="white" stroke="white" points="-4,5 -4,-286 389,-286 389,5 -4,5"/>
<!-- mo_acfg -->
<g id="node1" class="node"><title>mo_acfg</title>
<ellipse fill="none" stroke="black" cx="161" cy="-263" rx="51.1176" ry="18.3848"/>
<text text-anchor="middle" x="161" y="-259.4" font-family="Times Roman,serif" font-size="14.00">mo_acfg</text>
</g>
<!-- mo_app_static -->
<g id="node3" class="node"><title>mo_app_static</title>
<ellipse fill="none" stroke="black" cx="161" cy="-187" rx="80.8184" ry="18.3848"/>
<text text-anchor="middle" x="161" y="-183.4" font-family="Times Roman,serif" font-size="14.00">mo_app_static</text>
</g>
<!-- mo_acfg&#45;&gt;mo_app_static -->
<g id="edge2" class="edge"><title>mo_acfg&#45;&gt;mo_app_static</title>
<path fill="none" stroke="black" d="M161,-244.213C161,-235.654 161,-225.33 161,-215.822"/>
<polygon fill="black" stroke="black" points="164.5,-215.57 161,-205.57 157.5,-215.57 164.5,-215.57"/>
</g>
<!-- mo_app_taintchaser -->
<g id="node5" class="node"><title>mo_app_taintchaser</title>
<ellipse fill="none" stroke="black" cx="109" cy="-111" rx="109.101" ry="18.3848"/>
<text text-anchor="middle" x="109" y="-107.4" font-family="Times Roman,serif" font-size="14.00">mo_app_taintchaser</text>
</g>
<!-- mo_app_static&#45;&gt;mo_app_taintchaser -->
<g id="edge4" class="edge"><title>mo_app_static&#45;&gt;mo_app_taintchaser</title>
<path fill="none" stroke="black" d="M148.412,-168.603C142.135,-159.429 134.422,-148.156 127.489,-138.022"/>
<polygon fill="black" stroke="black" points="130.188,-135.768 121.652,-129.491 124.41,-139.721 130.188,-135.768"/>
</g>
<!-- mo_asma -->
<g id="node7" class="node"><title>mo_asma</title>
<ellipse fill="none" stroke="black" cx="293" cy="-111" rx="56.7776" ry="18.3848"/>
<text text-anchor="middle" x="293" y="-107.4" font-family="Times Roman,serif" font-size="14.00">mo_asma</text>
</g>
<!-- mo_app_static&#45;&gt;mo_asma -->
<g id="edge6" class="edge"><title>mo_app_static&#45;&gt;mo_asma</title>
<path fill="none" stroke="black" d="M190.953,-169.754C210.301,-158.615 235.611,-144.042 256.184,-132.197"/>
<polygon fill="black" stroke="black" points="258.051,-135.161 264.971,-127.138 254.558,-129.094 258.051,-135.161"/>
</g>
<!-- mo_realmachine -->
<g id="node9" class="node"><title>mo_realmachine</title>
<ellipse fill="none" stroke="black" cx="293" cy="-19" rx="91.2168" ry="18.3848"/>
<text text-anchor="middle" x="293" y="-15.4" font-family="Times Roman,serif" font-size="14.00">mo_realmachine</text>
</g>
<!-- mo_asma&#45;&gt;mo_realmachine -->
<g id="edge8" class="edge"><title>mo_asma&#45;&gt;mo_realmachine</title>
<path fill="none" stroke="black" d="M293,-92.3824C293,-79.5383 293,-62.2161 293,-47.6269"/>
<polygon fill="black" stroke="black" points="296.5,-47.5898 293,-37.5899 289.5,-47.5899 296.5,-47.5898"/>
<text text-anchor="middle" x="325" y="-61.4" font-family="Times Roman,serif" font-size="14.00">status=1</text>
</g>
</g>
</svg>
