<?xml version="1.0" encoding="UTF-8" standalone="no"?>
<!DOCTYPE svg PUBLIC "-//W3C//DTD SVG 1.1//EN"
 "http://www.w3.org/Graphics/SVG/1.1/DTD/svg11.dtd">
<!-- Generated by graphviz version 2.26.3 (20100126.1600)
 -->
<!-- Title: _anonymous_0 Pages: 1 -->
<svg width="286pt" height="666pt"
 viewBox="0.00 0.00 286.00 666.00" xmlns="http://www.w3.org/2000/svg" xmlns:xlink="http://www.w3.org/1999/xlink">
<g id="graph1" class="graph" transform="scale(1 1) rotate(0) translate(4 662)">
<title>_anonymous_0</title>
<polygon fill="white" stroke="white" points="-4,5 -4,-662 283,-662 283,5 -4,5"/>
<!-- 1 -->
<g id="node1" class="node"><title>1</title>
<ellipse fill="green" stroke="green" cx="108" cy="-591" rx="67.1751" ry="67.1751"/>
<text text-anchor="middle" x="108" y="-587.4" font-family="Microsoft Yahei" font-size="14.00" fill="white">自动化UI探测</text>
</g>
<!-- 2 -->
<g id="node2" class="node"><title>2</title>
<ellipse fill="green" stroke="green" cx="108" cy="-423" rx="61.8872" ry="62.3863"/>
<text text-anchor="middle" x="108" y="-418.4" font-family="Microsoft Yahei" font-size="14.00" fill="white">静态嫌疑分析</text>
</g>
<!-- 1&#45;&gt;2 -->
<g id="edge2" class="edge"><title>1&#45;&gt;2</title>
<path fill="none" stroke="black" d="M108,-523.636C108,-514.549 108,-505.192 108,-496.013"/>
<polygon fill="black" stroke="black" points="111.5,-495.749 108,-485.749 104.5,-495.749 111.5,-495.749"/>
</g>
<!-- 3 -->
<g id="node4" class="node"><title>3</title>
<ellipse fill="green" stroke="green" cx="66" cy="-255" rx="61.9172" ry="62.3863"/>
<ellipse fill="none" stroke="green" cx="66" cy="-255" rx="65.8872" ry="66.3863"/>
<text text-anchor="middle" x="66" y="-250.4" font-family="Microsoft Yahei" font-size="14.00" fill="white">动态污点跟踪</text>
</g>
<!-- 2&#45;&gt;3 -->
<g id="edge4" class="edge"><title>2&#45;&gt;3</title>
<path fill="none" stroke="black" d="M92.837,-362.348C90.1745,-351.698 87.3761,-340.504 84.6322,-329.529"/>
<polygon fill="black" stroke="black" points="87.9541,-328.385 82.1332,-319.533 81.1631,-330.083 87.9541,-328.385"/>
</g>
<!-- 4 -->
<g id="node6" class="node"><title>4</title>
<ellipse fill="green" stroke="green" cx="212" cy="-255" rx="61.8872" ry="62.3863"/>
<text text-anchor="middle" x="212" y="-250.4" font-family="Microsoft Yahei" font-size="14.00" fill="white">动态符号执行</text>
</g>
<!-- 2&#45;&gt;4 -->
<g id="edge6" class="edge"><title>2&#45;&gt;4</title>
<path fill="none" stroke="black" d="M140.906,-369.844C151.295,-353.062 162.864,-334.373 173.601,-317.029"/>
<polygon fill="black" stroke="black" points="176.842,-318.444 179.129,-308.099 170.89,-314.759 176.842,-318.444"/>
</g>
<!-- 5 -->
<g id="node8" class="node"><title>5</title>
<ellipse fill="green" stroke="green" cx="212" cy="-67" rx="61.9172" ry="62.3863"/>
<ellipse fill="none" stroke="green" cx="212" cy="-67" rx="65.8872" ry="66.3863"/>
<text text-anchor="middle" x="212" y="-62.4" font-family="Microsoft Yahei" font-size="14.00" fill="white">动态污点跟踪</text>
</g>
<!-- 4&#45;&gt;5 -->
<g id="edge8" class="edge"><title>4&#45;&gt;5</title>
<path fill="none" stroke="black" d="M212,-192.399C212,-176.742 212,-159.772 212,-143.524"/>
<polygon fill="black" stroke="black" points="215.5,-143.519 212,-133.519 208.5,-143.519 215.5,-143.519"/>
<text text-anchor="middle" x="244" y="-157.4" font-family="Times Roman,serif" font-size="14.00">status=1</text>
</g>
</g>
</svg>
